<svg width="26" height="29" viewBox="0 0 26 29" fill="none" xmlns="http://www.w3.org/2000/svg">
<g clip-path="url(#clip0_25_856)">
<path d="M25.8346 13.936C25.6024 13.5816 20.0681 5.25827 12.9998 5.25827C5.93144 5.25827 0.396886 13.5816 0.164867 13.9356C-0.0551183 14.2719 -0.0551183 14.7279 0.164867 15.0641C0.396886 15.4185 5.93144 23.7418 12.9998 23.7418C20.0681 23.7418 25.6024 15.4184 25.8346 15.0644C26.0549 14.7282 26.0549 14.2719 25.8346 13.936ZM12.9998 21.8297C7.79319 21.8297 3.28376 16.3054 1.94887 14.4994C3.28203 12.6918 7.78202 7.17035 12.9998 7.17035C18.2061 7.17035 22.7152 12.6937 24.0506 14.5007C22.7175 16.3082 18.2175 21.8297 12.9998 21.8297Z" fill="#8E8E8E"/>
<path d="M12.9999 8.76375C10.1642 8.76375 7.85706 11.3371 7.85706 14.5C7.85706 17.663 10.1642 20.2363 12.9999 20.2363C15.8357 20.2363 18.1428 17.663 18.1428 14.5C18.1428 11.3371 15.8357 8.76375 12.9999 8.76375ZM12.9999 18.3242C11.1093 18.3242 9.57138 16.6087 9.57138 14.5C9.57138 12.3914 11.1094 10.6759 12.9999 10.6759C14.8905 10.6759 16.4285 12.3914 16.4285 14.5C16.4285 16.6087 14.8905 18.3242 12.9999 18.3242Z" fill="#8E8E8E"/>
</g>
<defs>
<clipPath id="clip0_25_856">
<rect width="26" height="29" fill="white"/>
</clipPath>
</defs>
</svg>
