<svg width="16" height="14" viewBox="0 0 16 14" fill="none" xmlns="http://www.w3.org/2000/svg">
<path fill-rule="evenodd" clip-rule="evenodd" d="M7.58627 0.980482C11.2527 -0.89637 13.4948 0.181544 14.4346 2.02956C14.9369 3.01728 15.3413 4.76945 15.1013 6.59779H11.7037L11.2601 5.67359C11.0766 5.23701 10.4623 5.19122 10.2233 5.61261L9.86132 6.25024L9.11986 3.30112C9.00063 2.70733 8.15104 2.67207 7.99071 3.26314L7.19664 6.18459L6.93364 5.21148C6.81675 4.77237 6.25023 4.62879 5.94164 4.97751L4.5039 6.59779H0.0710688C-0.168944 4.76945 0.235493 3.01728 0.737922 2.02956C1.67752 0.181544 3.91965 -0.89637 7.58627 0.980482ZM14.858 7.7587C14.0723 10.4396 10.0224 13.5685 7.58627 14C5.1501 13.5683 1.10028 10.4397 0.314588 7.75889H4.76203C4.95295 7.75889 5.12224 7.66655 5.22803 7.52453L6.09398 6.5487L6.63382 8.55686C6.78694 9.12961 7.59971 9.12377 7.75362 8.5588L8.52937 5.70671L9.08908 7.93325C9.22019 8.45808 9.93224 8.52705 10.1701 8.05189L10.6842 7.14581L10.8196 7.42771C10.9188 7.63518 11.1255 7.75636 11.3411 7.75655L14.858 7.7587Z" fill="#CA6B6E"/>
</svg>
