<svg width="16" height="20" viewBox="0 0 16 20" fill="none" xmlns="http://www.w3.org/2000/svg">
<path fill-rule="evenodd" clip-rule="evenodd" d="M5.70834 1.77195H4.79168V2.68862H7.08334V3.60531H4.79168V4.55997C6.09229 4.77818 7.08334 5.90935 7.08334 7.27198V8.18864H1.58334V7.27198C1.58334 5.90935 2.5744 4.77818 3.87501 4.55997V3.60531H2.88011C2.69136 4.13931 2.18202 4.52198 1.58334 4.52198C0.823954 4.52198 0.208344 3.90634 0.208344 3.14695C0.208344 2.38756 0.823954 1.77195 1.58334 1.77195C2.18202 1.77195 2.69136 2.15457 2.88011 2.68862H3.87501V1.77195H2.95834V0.855286H5.70834V1.77195ZM1.58334 9.10531V18.7303C1.58334 18.9834 1.78854 19.1886 2.04168 19.1886H6.62501C6.87815 19.1886 7.08334 18.9834 7.08334 18.7303V9.10531H1.58334ZM1.58334 2.68862C1.33022 2.68862 1.12501 2.89382 1.12501 3.14695C1.12501 3.40008 1.33022 3.60531 1.58334 3.60531C1.83648 3.60531 2.04168 3.40008 2.04168 3.14695C2.04168 2.89382 1.83648 2.68862 1.58334 2.68862ZM8.91668 8.64698C8.91668 7.63443 9.73751 6.81364 10.75 6.81364C11.7625 6.81364 12.5833 7.63443 12.5833 8.64698V11.397C12.5833 12.4095 11.7625 13.2303 10.75 13.2303C9.73751 13.2303 8.91668 12.4095 8.91668 11.397V8.64698ZM10.75 7.73031C10.2437 7.73031 9.83334 8.1407 9.83334 8.64698V11.397C9.83334 11.9032 10.2437 12.3136 10.75 12.3136C11.2563 12.3136 11.6667 11.9032 11.6667 11.397V8.64698C11.6667 8.1407 11.2563 7.73031 10.75 7.73031ZM13.0417 10.9386H14.4167C14.6698 10.9386 14.875 11.1438 14.875 11.397C14.875 11.6501 14.6698 11.8553 14.4167 11.8553C13.6573 11.8553 13.0417 12.4709 13.0417 13.2303V14.147C13.0417 14.4001 13.2469 14.6053 13.5 14.6053H15.7917V13.6886H13.9583V13.2303C13.9583 12.9772 14.1635 12.772 14.4167 12.772C15.1761 12.772 15.7917 12.1563 15.7917 11.397C15.7917 10.6376 15.1761 10.022 14.4167 10.022H13.0417V10.9386Z" fill="#3B8045"/>
</svg>
