<svg width="23" height="23" viewBox="0 0 23 23" fill="none" xmlns="http://www.w3.org/2000/svg">
<g clip-path="url(#clip0_13_306)">
<path fill-rule="evenodd" clip-rule="evenodd" d="M20.125 12.6979C20.125 12.8302 20.0177 12.9375 19.8854 12.9375H17.7292V13.8958H19.4063C19.5386 13.8958 19.6459 14.0031 19.6459 14.1354V14.6146C19.6459 14.7469 19.5386 14.8542 19.4063 14.8542H15.3586V15.8125H17.8732C16.5075 16.9014 14.4125 17.022 12.8545 16.1636L10.0541 14.6208L9.59174 15.4602L12.3921 17.003C14.2834 18.0449 16.8369 17.9077 18.5283 16.5151C18.7681 16.3176 19.0149 16.0899 19.273 15.8125H19.4063C20.0679 15.8125 20.6042 15.2762 20.6042 14.6146V14.1354C20.6042 13.9856 20.5767 13.8423 20.5265 13.7101C20.8612 13.4976 21.0834 13.1237 21.0834 12.6979V12.2188C21.0834 11.793 20.8612 11.419 20.5265 11.2066C20.5767 11.0744 20.6042 10.931 20.6042 10.7812V10.3021C20.6042 9.72253 20.1926 9.2391 19.6459 9.12812V8.73971C19.6459 7.98905 19.0683 7.36474 18.3198 7.30652L16.7894 7.1875H16.4766C14.0838 7.1875 11.726 7.76293 9.60218 8.86521L10.0437 9.71582C12.0311 8.68432 14.2374 8.14583 16.4766 8.14583H16.7523L18.2455 8.26198C18.495 8.28139 18.6875 8.48949 18.6875 8.73971V9.10417H17.7292V10.0625H19.4063C19.5386 10.0625 19.6459 10.1698 19.6459 10.3021V10.7812C19.6459 10.9135 19.5386 11.0208 19.4063 11.0208H17.7292V11.9792H19.8854C20.0177 11.9792 20.125 12.0865 20.125 12.2188V12.6979Z" fill="#968700"/>
<path fill-rule="evenodd" clip-rule="evenodd" d="M2.875 9.58337H7.1875V10.5417H2.875V9.58337Z" fill="#968700"/>
<path fill-rule="evenodd" clip-rule="evenodd" d="M2.875 14.375H7.1875V15.3333H2.875V14.375Z" fill="#968700"/>
<path fill-rule="evenodd" clip-rule="evenodd" d="M6.70837 4.79163C6.70837 3.99772 7.35194 3.35413 8.14587 3.35413C8.93981 3.35413 9.58337 3.99772 9.58337 4.79163V8.62496C9.58337 9.41889 8.93981 10.0625 8.14587 10.0625C7.35194 10.0625 6.70837 9.41889 6.70837 8.62496V4.79163ZM8.62504 5.05776C8.62504 5.3224 8.41052 5.53692 8.14587 5.53692C7.88123 5.53692 7.66671 5.3224 7.66671 5.05776C7.66671 4.79311 7.88123 4.5786 8.14587 4.5786C8.41052 4.5786 8.62504 4.79311 8.62504 5.05776ZM8.14587 7.18746C8.41052 7.18746 8.62504 6.97294 8.62504 6.70829C8.62504 6.44365 8.41052 6.22913 8.14587 6.22913C7.88123 6.22913 7.66671 6.44365 7.66671 6.70829C7.66671 6.97294 7.88123 7.18746 8.14587 7.18746Z" fill="#968700"/>
<path fill-rule="evenodd" clip-rule="evenodd" d="M6.70837 4.79163C6.70837 3.99772 7.35194 3.35413 8.14587 3.35413C8.93981 3.35413 9.58337 3.99772 9.58337 4.79163V8.62496C9.58337 9.41889 8.93981 10.0625 8.14587 10.0625C7.35194 10.0625 6.70837 9.41889 6.70837 8.62496V4.79163ZM8.62504 8.064V8.62496C8.62504 8.8896 8.41052 9.10413 8.14587 9.10413C7.88123 9.10413 7.66671 8.8896 7.66671 8.62496V8.064C7.81659 8.11695 7.97788 8.14579 8.14587 8.14579C8.31387 8.14579 8.47516 8.11695 8.62504 8.064ZM8.54277 6.43977C8.59471 6.51639 8.62504 6.60877 8.62504 6.70829C8.62504 6.97294 8.41052 7.18746 8.14587 7.18746C7.88123 7.18746 7.66671 6.97294 7.66671 6.70829C7.66671 6.60877 7.69704 6.51639 7.74898 6.43977C7.83513 6.31264 7.98075 6.22913 8.14587 6.22913C8.31099 6.22913 8.45661 6.31264 8.54277 6.43977ZM8.54277 5.32628C8.59471 5.24971 8.62504 5.15728 8.62504 5.05776C8.62504 4.79311 8.41052 4.5786 8.14587 4.5786C7.88123 4.5786 7.66671 4.79311 7.66671 5.05776C7.66671 5.15728 7.69704 5.24971 7.74898 5.32628C7.83513 5.4534 7.98075 5.53692 8.14587 5.53692C8.31099 5.53692 8.45661 5.4534 8.54277 5.32628Z" fill="#968700"/>
<path fill-rule="evenodd" clip-rule="evenodd" d="M5.75 9.58333C5.75 9.05405 6.17905 8.625 6.70833 8.625H9.58333C10.1126 8.625 10.5417 9.05405 10.5417 9.58333V15.3333C10.5417 15.6961 10.3401 16.0118 10.0429 16.1745C9.8107 16.3016 9.58333 16.5062 9.58333 16.7708C9.58333 17.0355 9.36881 17.25 9.10417 17.25H7.1875C6.92286 17.25 6.70833 17.0355 6.70833 16.7708C6.70833 16.5062 6.48097 16.3016 6.24881 16.1745C5.95159 16.0118 5.75 15.6961 5.75 15.3333V9.58333ZM7.42708 10.0625C7.29479 10.0625 7.1875 10.1698 7.1875 10.3021V14.6146C7.1875 14.7469 7.29479 14.8542 7.42708 14.8542H8.86458C8.99688 14.8542 9.10417 14.7469 9.10417 14.6146V10.3021C9.10417 10.1698 8.99688 10.0625 8.86458 10.0625H7.42708Z" fill="#968700"/>
<path fill-rule="evenodd" clip-rule="evenodd" d="M7.30044 15.8059C7.40787 15.9328 7.51353 16.0958 7.58358 16.2917H8.70809C8.77814 16.0958 8.8838 15.9328 8.99123 15.8059M6.70833 8.625C6.17905 8.625 5.75 9.05405 5.75 9.58333V15.3333C5.75 15.6961 5.95159 16.0118 6.24881 16.1745C6.48097 16.3016 6.70833 16.5062 6.70833 16.7708C6.70833 17.0355 6.92286 17.25 7.1875 17.25H9.10417C9.36881 17.25 9.58333 17.0355 9.58333 16.7708C9.58333 16.5062 9.8107 16.3016 10.0429 16.1745C10.3401 16.0118 10.5417 15.6961 10.5417 15.3333V9.58333C10.5417 9.05405 10.1126 8.625 9.58333 8.625H6.70833ZM7.1875 10.3021C7.1875 10.1698 7.29479 10.0625 7.42708 10.0625H8.86458C8.99688 10.0625 9.10417 10.1698 9.10417 10.3021V14.6146C9.10417 14.7469 8.99688 14.8542 8.86458 14.8542H7.42708C7.29479 14.8542 7.1875 14.7469 7.1875 14.6146V10.3021Z" fill="#968700"/>
</g>
<defs>
<clipPath id="clip0_13_306">
<rect width="23" height="23" fill="white"/>
</clipPath>
</defs>
</svg>
