<svg width="24" height="24" viewBox="0 0 24 24" fill="none" xmlns="http://www.w3.org/2000/svg">
<path d="M4.24758 17.5891H6.15352V19.4951H17.5892V4.24754H6.15352V6.15348H4.24758V3.29457C4.24758 3.04183 4.34799 2.79943 4.5267 2.62072C4.70542 2.442 4.94781 2.3416 5.20055 2.3416H18.5421C18.7949 2.3416 19.0373 2.442 19.216 2.62072C19.3947 2.79943 19.4951 3.04183 19.4951 3.29457V20.448C19.4951 20.7008 19.3947 20.9432 19.216 21.1219C19.0373 21.3006 18.7949 21.401 18.5421 21.401H5.20055C4.94781 21.401 4.70542 21.3006 4.5267 21.1219C4.34799 20.9432 4.24758 20.7008 4.24758 20.448V17.5891ZM6.15352 10.9183H12.8243V12.8243H6.15352V15.6832L1.38867 11.8713L6.15352 8.05942V10.9183Z" fill="#707070"/>
</svg>
