<svg width="16" height="16" viewBox="0 0 16 16" fill="none" xmlns="http://www.w3.org/2000/svg">
<path d="M2.64816 1.77778C3.1391 1.77778 3.53705 1.37981 3.53705 0.888889C3.53705 0.397969 3.1391 0 2.64816 0C2.31914 0 2.0319 0.178756 1.87821 0.444444H1.75928C1.0229 0.444444 0.425942 1.0414 0.425942 1.77778V5.77778C0.180493 5.77778 -0.0205865 5.9772 0.00168907 6.22164C0.105018 7.35551 0.6018 8.42311 1.41344 9.23476C2.00861 9.82991 2.74141 10.2558 3.53705 10.4813V11.5556C3.53705 12.1362 3.90816 12.6301 4.42612 12.8131C4.44505 14.5764 5.88039 16 7.64816 16C9.42776 16 10.8704 14.5574 10.8704 12.7778V11C10.8704 10.0795 11.6166 9.33333 12.5371 9.33333C13.4575 9.33333 14.2037 10.0795 14.2037 11V12.0759C13.6859 12.2589 13.3148 12.7528 13.3148 13.3333C13.3148 14.0697 13.9118 14.6667 14.6482 14.6667C15.3846 14.6667 15.9815 14.0697 15.9815 13.3333C15.9815 12.7528 15.6105 12.2589 15.0926 12.0759V11C15.0926 9.58862 13.9484 8.44444 12.5371 8.44444C11.1257 8.44444 9.9815 9.58862 9.9815 11V12.7778C9.9815 14.0664 8.93683 15.1111 7.64816 15.1111C6.37123 15.1111 5.3339 14.0854 5.3151 12.8129C5.83283 12.6298 6.20372 12.136 6.20372 11.5556V10.4813C6.99936 10.2558 7.73221 9.82991 8.32736 9.23476C9.13901 8.42311 9.63576 7.35551 9.7391 6.22164C9.76141 5.9772 9.5603 5.77778 9.31483 5.77778V1.77778C9.31483 1.0414 8.7179 0.444444 7.9815 0.444444H7.86257C7.70888 0.178756 7.42163 0 7.09261 0C6.60168 0 6.20372 0.397969 6.20372 0.888889C6.20372 1.37981 6.60168 1.77778 7.09261 1.77778C7.42163 1.77778 7.70888 1.59902 7.86257 1.33333H7.9815C8.22696 1.33333 8.42594 1.53232 8.42594 1.77778V5.77778H8.51905C8.27359 5.77778 8.07776 5.97773 8.04385 6.22084C7.94808 6.90693 7.63159 7.548 7.13612 8.04351C6.53519 8.6444 5.72021 8.982 4.87039 8.982C4.02061 8.982 3.20559 8.6444 2.6047 8.04351C2.10919 7.548 1.79274 6.90693 1.69696 6.22084C1.66303 5.97773 1.46721 5.77778 1.22175 5.77778H1.31483V1.77778C1.31483 1.53232 1.51382 1.33333 1.75928 1.33333H1.87821C2.0319 1.59902 2.31914 1.77778 2.64816 1.77778Z" fill="#BD6A00"/>
</svg>
